# xmcd
#
# Track frame offsets: 
#        150
#        15764
#        33976
#        46747
#        66963
#        86868
#        105452
#        117103
#        127249
#        144249
#        162692
#        186929
#
# Disc length: 2966 seconds
#
# Revision: 2
# Processed by: cddbd v1.5.2PL0 Copyright (c) Steve Scherf et al.
# Submitted via: ExactAudioCopy v0.99pb5
#
DISCID=9e0b940c
DTITLE=Kellylee Evans - Nina
DYEAR=2010
DGENRE=Balade
TTITLE0=Do What You Gotta Do
TTITLE1=Don't Let Me Be Misunderstood
TTITLE2=Ain't Got No - I Got Life
TTITLE3=Mood Indigo
TTITLE4=Feeling Good
TTITLE5=Tomorrow Is My Turn
TTITLE6=I Loves You Porgy
TTITLE7=July Tree
TTITLE8=Love Me or Leave Me
TTITLE9=Ne me quitte pas
TTITLE10=Sinnerman
TTITLE11=Wild Is The Wind
EXTD=
EXTT0=
EXTT1=
EXTT2=
EXTT3=
EXTT4=
EXTT5=
EXTT6=
EXTT7=
EXTT8=
EXTT9=
EXTT10=
EXTT11=
PLAYORDER=
